# xmcd
#
# Track frame offsets:
#	150
#	13165
#	23333
#	34654
#	47831
#	61683
#	72187
#	82432
#	95513
#	107230
#	120451
#	133268
#	149095
#
# Disc length: 2188 seconds
#
# Revision: 1
# Processed by: cddbd v1.5.2PL0 Copyright (c) Steve Scherf et al.
# Submitted via: audiograbber 1.83.01
#
DISCID=b8088a0d
DTITLE=Lou Hobbs - My Country Roots Lou Hobbs
DYEAR=1900
DGENRE=
TTITLE0=Boys In Blue
TTITLE1=Hey Bartender
TTITLE2=Passion Hit Me
TTITLE3=She Don´t Want A Lover
TTITLE4=Scret Love Affair
TTITLE5=You Got Sweet Love All Over Me
TTITLE6=Man On His Way Down
TTITLE7=Run Right Back
TTITLE8=Jones On The Jukebox
TTITLE9=Still Your Fool
TTITLE10=I Don´t Want To Be You
TTITLE11=You Scared The Love Into Me
TTITLE12=Old Faithful
EXTD=
EXTT0=
EXTT1=
EXTT2=
EXTT3=
EXTT4=
EXTT5=
EXTT6=
EXTT7=
EXTT8=
EXTT9=
EXTT10=
EXTT11=
EXTT12=
PLAYORDER=
